<?xml version="1.0" encoding="UTF-8"?>
<svg version="1.1" xmlns="http://www.w3.org/2000/svg" width="300" height="300">
<path d="M0 0 C0.779767 -0.00979385 1.559534 -0.01958771 2.3629303 -0.02967834 C34.45456115 -0.3500305 34.45456115 -0.3500305 49.70703125 4.23828125 C50.46242187 4.45258789 51.2178125 4.66689453 51.99609375 4.88769531 C63.21144729 8.10882737 73.47313375 12.673949 83.70703125 18.23828125 C85.27710938 19.06972656 85.27710938 19.06972656 86.87890625 19.91796875 C120.48177362 38.49733192 144.21650285 71.08853802 155.70703125 107.23828125 C158.76050617 117.84475796 160.83066606 128.46295474 160.9453125 139.53125 C160.95510635 140.311017 160.96490021 141.090784 160.97499084 141.8941803 C161.295343 173.98581115 161.295343 173.98581115 156.70703125 189.23828125 C156.49272461 189.99367187 156.27841797 190.7490625 156.05761719 191.52734375 C152.83648513 202.74269729 148.2713635 213.00438375 142.70703125 223.23828125 C142.15273438 224.285 141.5984375 225.33171875 141.02734375 226.41015625 C122.52702274 259.87006698 89.8376004 283.98271572 53.70703125 295.23828125 C47.76573625 296.87311917 41.76654533 298.13143503 35.70703125 299.23828125 C34.80799072 299.41262695 33.9089502 299.58697266 32.98266602 299.76660156 C29.15133931 300.3182989 25.37436612 300.43683311 21.51171875 300.4765625 C20.7305368 300.48635635 19.94935486 300.49615021 19.14450073 300.50624084 C-13.0397999 300.8268032 -13.0397999 300.8268032 -28.29296875 296.23828125 C-29.42605469 295.91682129 -29.42605469 295.91682129 -30.58203125 295.58886719 C-41.79738479 292.36773513 -52.05907125 287.8026135 -62.29296875 282.23828125 C-63.3396875 281.68398438 -64.38640625 281.1296875 -65.46484375 280.55859375 C-99.06771112 261.97923058 -122.80244035 229.38802448 -134.29296875 193.23828125 C-137.34644367 182.63180454 -139.41660356 172.01360776 -139.53125 160.9453125 C-139.54594078 159.775662 -139.54594078 159.775662 -139.56092834 158.5823822 C-139.8812805 126.49075135 -139.8812805 126.49075135 -135.29296875 111.23828125 C-135.07866211 110.48289062 -134.86435547 109.7275 -134.64355469 108.94921875 C-131.42242263 97.73386521 -126.857301 87.47217875 -121.29296875 77.23828125 C-120.46152344 75.66820313 -120.46152344 75.66820313 -119.61328125 74.06640625 C-101.03391808 40.46353888 -68.44271198 16.72880965 -32.29296875 5.23828125 C-21.68649204 2.18480633 -11.06829526 0.11464644 0 0 Z M-5.29296875 88.23828125 C-5.29296875 89.55828125 -5.29296875 90.87828125 -5.29296875 92.23828125 C-4.63296875 92.23828125 -3.97296875 92.23828125 -3.29296875 92.23828125 C-3.29296875 90.91828125 -3.29296875 89.59828125 -3.29296875 88.23828125 C-3.95296875 88.23828125 -4.61296875 88.23828125 -5.29296875 88.23828125 Z " fill="#0B3E6A" transform="translate(139.29296875,-0.23828125)"/>
<path d="M0 0 C1.92875977 0.00193359 1.92875977 0.00193359 3.89648438 0.00390625 C13.40694207 0.08954319 22.13220399 1.180588 31.6875 2.375 C31.6875 15.575 31.6875 28.775 31.6875 42.375 C18.125 42.625 18.125 42.625 13.88842773 42.67285156 C7.03159577 42.86037198 2.17475869 43.0897866 -3.3125 47.375 C-7.78707938 53.14485236 -8.47938912 57.65106446 -8.62890625 64.76171875 C-8.64755737 65.48605103 -8.6662085 66.2103833 -8.6854248 66.95666504 C-8.7536448 69.65848775 -8.8138431 72.36050819 -8.875 75.0625 C-9.019375 81.105625 -9.16375 87.14875 -9.3125 93.375 C4.2175 93.375 17.7475 93.375 31.6875 93.375 C31.10081385 99.24186145 30.52868508 104.82575739 29.53125 110.58984375 C29.20447266 112.48379883 29.20447266 112.48379883 28.87109375 114.41601562 C28.53271484 116.34477539 28.53271484 116.34477539 28.1875 118.3125 C27.95936679 119.63862569 27.73150053 120.96479733 27.50390625 122.29101562 C25.82125235 131.97374295 25.82125235 131.97374295 24.6875 135.375 C13.4675 135.375 2.2475 135.375 -9.3125 135.375 C-9.3125 170.355 -9.3125 205.335 -9.3125 241.375 C-17.18951905 243.62557687 -17.18951905 243.62557687 -20.484375 243.63378906 C-21.22204102 243.64009338 -21.95970703 243.64639771 -22.71972656 243.65289307 C-23.4928418 243.6488446 -24.26595703 243.64479614 -25.0625 243.640625 C-25.87944336 243.64253845 -26.69638672 243.6444519 -27.53808594 243.64642334 C-29.25586253 243.64777715 -30.97364964 243.64413724 -32.69140625 243.63574219 C-35.30492363 243.62503105 -37.91775373 243.63566477 -40.53125 243.6484375 C-42.20833483 243.64711576 -43.88541924 243.64455307 -45.5625 243.640625 C-46.72217285 243.64669769 -46.72217285 243.64669769 -47.90527344 243.65289307 C-48.64293945 243.64658875 -49.38060547 243.64028442 -50.140625 243.63378906 C-50.7790332 243.63219788 -51.41744141 243.63060669 -52.07519531 243.62896729 C-55.22441076 243.2714846 -58.26500725 242.24571221 -61.3125 241.375 C-61.3125 206.065 -61.3125 170.755 -61.3125 134.375 C-73.1925 134.375 -85.0725 134.375 -97.3125 134.375 C-97.3125 120.845 -97.3125 107.315 -97.3125 93.375 C-85.4325 93.375 -73.5525 93.375 -61.3125 93.375 C-61.33570313 90.23097656 -61.35890625 87.08695312 -61.3828125 83.84765625 C-61.39844054 80.77954511 -61.41056733 77.71143853 -61.42236328 74.64331055 C-61.43237844 72.52219638 -61.44599446 70.40109587 -61.46337891 68.2800293 C-61.48782525 65.21920384 -61.49902825 62.15856203 -61.5078125 59.09765625 C-61.51813507 58.15978775 -61.52845764 57.22191925 -61.53909302 56.25563049 C-61.54186784 39.71910312 -55.15545432 26.74859556 -44.0625 14.625 C-31.73458579 2.994366 -16.46758648 -0.31086353 0 0 Z M-51.3125 31.375 C-51.3125 32.695 -51.3125 34.015 -51.3125 35.375 C-50.6525 35.375 -49.9925 35.375 -49.3125 35.375 C-49.3125 34.055 -49.3125 32.735 -49.3125 31.375 C-49.9725 31.375 -50.6325 31.375 -51.3125 31.375 Z " fill="#FDFDFE" transform="translate(185.3125,56.625)"/>
</svg>
