<?xml version="1.0" encoding="UTF-8"?>
<svg version="1.1" xmlns="http://www.w3.org/2000/svg" width="300" height="300">
<path d="M0 0 C1.68199615 -0.00571576 3.36398843 -0.01268463 5.04597473 -0.02079773 C9.57711611 -0.03861173 14.10806259 -0.03758303 18.63922834 -0.03185534 C22.43854758 -0.02874619 26.2378303 -0.03487506 30.0371443 -0.04089409 C39.00868101 -0.05489928 47.98012241 -0.05341168 56.95166016 -0.04199219 C66.17041901 -0.03051646 75.38888674 -0.04458668 84.60760725 -0.07138866 C92.55710328 -0.09362506 100.50650846 -0.10016518 108.45603335 -0.09431225 C113.18871008 -0.09096022 117.92120033 -0.09323993 122.65385056 -0.11056328 C127.10774714 -0.12615752 131.56121621 -0.12194032 136.01509666 -0.10325813 C137.63748919 -0.09960641 139.2599143 -0.10257929 140.88227654 -0.11314392 C160.95799234 -0.23376392 178.36171236 5.16762422 193.88134766 18.40405273 C195.11884766 19.35344727 195.11884766 19.35344727 196.38134766 20.32202148 C208.28637499 30.23667706 216.41826785 46.25948157 218.88134766 61.40405273 C218.97813756 63.82415925 219.02049405 66.24665795 219.02851868 68.66868591 C219.03219536 69.38995244 219.03587205 70.11121896 219.03966016 70.85434204 C219.05065396 73.26602048 219.05453356 75.67765577 219.05834961 78.08935547 C219.06461772 79.82105138 219.07126483 81.55274596 219.07826233 83.28443909 C219.09927121 88.96883209 219.10966467 94.65322524 219.11962891 100.33764648 C219.12367824 102.29899675 219.12779522 104.26034687 219.13197899 106.22169685 C219.15102704 115.44171242 219.1652565 124.66172002 219.17359096 133.88175148 C219.18334942 144.50012078 219.20963421 155.11828086 219.25009185 165.7365765 C219.28033571 173.95848587 219.29506782 182.18033558 219.29837197 190.40229946 C219.30071384 195.30555551 219.3095607 200.20858796 219.33483315 205.11178398 C219.35826273 209.73214912 219.36228782 214.35214581 219.35207176 218.97255516 C219.35157982 220.65826398 219.35779811 222.34399186 219.37162781 224.02964401 C219.5208114 243.30904105 214.46076077 259.41709644 201.88134766 274.40405273 C200.79853516 275.88905273 200.79853516 275.88905273 199.69384766 277.40405273 C188.7613991 290.21773432 170.41191579 298.75781433 153.82498741 300.63702774 C148.7019288 300.99005259 143.57623613 300.94973637 138.44384766 300.92163086 C136.7517029 300.92706652 135.05956289 300.9341972 133.36743164 300.94287109 C128.81775051 300.96093596 124.26843665 300.9541074 119.71875 300.94135475 C114.92919007 300.93113889 110.13965898 300.94064403 105.35009766 300.94689941 C97.31097847 300.95415105 89.27200687 300.94465368 81.23291016 300.92553711 C71.97433644 300.90377319 62.71611523 300.91082632 53.45755005 300.93284273 C45.4697877 300.95106789 37.4821307 300.95352046 29.49435425 300.94308805 C24.74048089 300.93689205 19.98677253 300.93590906 15.23291016 300.94923401 C10.76091229 300.96089617 6.28936334 300.95258029 1.81741333 300.92965698 C0.18857565 300.92442468 -1.44030065 300.92578804 -3.06912231 300.93470764 C-23.62361809 301.03678016 -41.57266232 295.42539225 -57.11865234 281.40405273 C-57.80314453 280.81237305 -58.48763672 280.22069336 -59.19287109 279.61108398 C-72.0305223 267.78228552 -80.38498352 250.19714034 -81.31075668 232.7924614 C-81.41746868 228.4398686 -81.41231308 224.08727671 -81.40917969 219.73364258 C-81.41517375 218.06356509 -81.4219813 216.39349035 -81.42953491 214.72341919 C-81.44711562 210.21066929 -81.45188701 205.69799536 -81.45316648 201.18521452 C-81.45459347 198.35779894 -81.45887346 195.53040233 -81.46416092 192.70299149 C-81.48263698 182.81606075 -81.49083482 172.92918375 -81.48925781 163.04223633 C-81.488058 153.86390199 -81.50913519 144.6858034 -81.54074514 135.50752866 C-81.56700581 127.59715253 -81.57762098 119.68685291 -81.57634699 111.77643359 C-81.57584011 107.06546448 -81.58137017 102.35470497 -81.60270309 97.64377975 C-81.62225065 93.20635301 -81.62209872 88.76933225 -81.60766983 84.33189011 C-81.60560073 82.7163635 -81.61016721 81.10081036 -81.62239075 79.48532867 C-81.76986874 58.61914197 -76.38481948 40.20482749 -62.11865234 24.40405273 C-61.55404297 23.76983398 -60.98943359 23.13561523 -60.40771484 22.48217773 C-44.19049093 5.2751702 -22.81805591 -0.07076928 0 0 Z M-40.11865234 44.40405273 C-40.67166016 44.92225586 -41.22466797 45.44045898 -41.79443359 45.97436523 C-45.56498058 49.85670742 -47.92060201 54.50342916 -50.36865234 59.27905273 C-50.71041504 59.9391333 -51.05217773 60.59921387 -51.40429688 61.27929688 C-56.13897317 70.9031693 -56.41459766 80.22634758 -56.39331055 90.82128906 C-56.39766524 92.26125857 -56.4028509 93.70122576 -56.40879822 95.14118958 C-56.42211945 99.02979449 -56.4227745 102.9183018 -56.42023492 106.80692506 C-56.41916031 110.06451872 -56.42406115 113.32209304 -56.42884034 116.57968253 C-56.43991221 124.2718866 -56.44038632 131.96404183 -56.43432617 139.65625 C-56.4282907 147.56505089 -56.44059185 155.47367368 -56.46189624 163.3824442 C-56.47956959 170.1963564 -56.48550451 177.0102122 -56.4822585 183.82414645 C-56.48045428 187.88327457 -56.48299483 191.94227568 -56.49697304 196.00138283 C-56.50964021 199.82234407 -56.50752431 203.64302985 -56.49456215 207.46398735 C-56.49221585 208.85704267 -56.49486021 210.25011791 -56.50318527 211.64315033 C-56.60251615 229.57332519 -51.91102035 244.17116787 -39.27880859 257.26733398 C-38.56595703 257.97245117 -37.85310547 258.67756836 -37.11865234 259.40405273 C-36.60173828 259.95448242 -36.08482422 260.50491211 -35.55224609 261.07202148 C-31.79886579 264.72740231 -27.28126268 267.15303364 -22.68115234 269.59155273 C-22.07972412 269.92493652 -21.4782959 270.25832031 -20.85864258 270.60180664 C-5.35061312 278.42372682 13.1955668 276.85363947 30.03524399 276.80702925 C33.69790018 276.79932758 37.36053606 276.80650692 41.02319336 276.81118774 C47.16898713 276.8166152 53.31467205 276.80953351 59.46044922 276.79516602 C66.52239235 276.7788453 73.58407546 276.78413596 80.64601231 276.80064523 C86.75611089 276.8143467 92.8661321 276.81613785 98.97624111 276.80832922 C102.60502305 276.80369986 106.23368359 276.80289468 109.86245728 276.81293869 C136.21022072 276.8758411 157.61835305 275.79635865 178.13134766 257.38452148 C182.41572444 253.00809754 185.38144942 248.10913878 188.19384766 242.71655273 C188.68256348 241.80087524 188.68256348 241.80087524 189.18115234 240.86669922 C194.49603937 230.03920694 195.32737207 218.11193731 195.25366211 206.24536133 C195.25609861 204.89332297 195.25982617 203.54128644 195.26472473 202.18925476 C195.27401838 198.56326163 195.26480797 194.93754391 195.2513926 191.31157255 C195.23995347 187.49088802 195.24419501 183.6702146 195.24613953 179.84951782 C195.24701839 173.43959127 195.23602617 167.02977129 195.2175293 160.61987305 C195.19634987 153.23870009 195.19285814 145.85768282 195.19909126 138.47648561 C195.20481049 131.33454954 195.19911038 124.19266756 195.18791771 117.05073929 C195.18330733 114.02952689 195.18238223 111.00834796 195.18450356 107.98713303 C195.18640473 104.42303772 195.1781441 100.85909805 195.16244316 97.29503822 C195.15626552 95.38426822 195.15967896 93.4734745 195.16351318 91.56269836 C195.06503573 75.3578729 191.81186783 61.46537729 181.88134766 48.40405273 C181.35798828 47.71569336 180.83462891 47.02733398 180.29541016 46.31811523 C171.25014573 35.23448136 157.82031229 28.10613728 143.88134766 25.40405273 C138.97948725 24.99348837 134.09238745 24.98228673 129.17700195 25 C127.73012774 24.99428449 126.28325802 24.98731571 124.83639526 24.97920227 C120.93740464 24.96138331 117.03864047 24.96241813 113.1396215 24.96814466 C109.86968103 24.97125375 106.59978298 24.96512487 103.32984859 24.95910591 C95.60682545 24.94509846 87.88391302 24.94658958 80.16088867 24.95800781 C72.22817006 24.96947786 64.29578998 24.95542355 56.36311597 24.92861134 C49.52109439 24.90636253 42.67917835 24.89983774 35.83712322 24.90568775 C31.76451397 24.90903759 27.69212145 24.90677548 23.61954308 24.88943672 C19.78533818 24.87382286 15.9516294 24.87808042 12.11744308 24.89674187 C10.7220029 24.90038864 9.32652476 24.89743569 7.93111992 24.88685608 C-11.3698523 24.75185908 -26.4845112 30.84230526 -40.11865234 44.40405273 Z " fill="#11416A" transform="translate(81.11865234375,-0.404052734375)"/>
<path d="M0 0 C16.71456235 14.17624772 25.31747076 33.56132342 27.28515625 55.125 C27.90338779 74.90840922 20.81538993 93.1176117 8 108 C7.31292969 108.79921875 6.62585938 109.5984375 5.91796875 110.421875 C-6.948225 124.26675881 -26.10930877 133.45560681 -45.0078125 134.3359375 C-46.71333331 134.36560733 -48.41922417 134.3782145 -50.125 134.375 C-51.48588745 134.37258301 -51.48588745 134.37258301 -52.87426758 134.37011719 C-61.36875791 134.21782999 -68.95479152 132.6299887 -77 130 C-77.91910156 129.71125 -78.83820313 129.4225 -79.78515625 129.125 C-98.99707927 122.30491956 -113.58324047 106.40753968 -122.375 88.5 C-129.92550598 70.86117908 -130.97402146 50.03423013 -124 32 C-115.36316258 11.10688535 -101.12085822 -3.23566131 -80.59765625 -12.54296875 C-52.99994203 -23.73300507 -23.19111882 -18.22576592 0 0 Z M-95.00390625 23.34375 C-105.1892311 36.89485174 -107.1645091 51.60254089 -106 68 C-103.47945007 82.71333062 -95.17993379 95.0425765 -83.40234375 103.96875 C-75.18481752 109.54957357 -65.97319914 113.27467643 -56 114 C-55.23945313 114.06316406 -54.47890625 114.12632812 -53.6953125 114.19140625 C-39.03137614 114.8658603 -25.12261604 109.95919272 -14.02734375 100.453125 C-2.28819282 89.55192678 3.52534454 76.68286869 5.23828125 60.7890625 C5.72016175 46.73844159 0.83264125 32.286418 -8.375 21.75 C-9.89838526 20.14906968 -11.43871934 18.56399593 -13 17 C-13.56589844 16.4225 -14.13179688 15.845 -14.71484375 15.25 C-24.41282734 6.14480269 -37.8220521 2.2414285 -50.875 1.5625 C-68.41730162 2.22720006 -83.66749968 10.08479495 -95.00390625 23.34375 Z " fill="#1C4970" transform="translate(201,92)"/>
<path d="M0 0 C5.94405993 4.65600432 7.97828137 9.58244872 9.046875 17.01171875 C9.41450154 23.55358587 7.30452203 28.61876569 3.19921875 33.72265625 C-2.39324953 39.28849373 -7.03735245 42.00093854 -15.11328125 42.09765625 C-22.18335557 41.95418236 -26.62847811 40.73760308 -31.76953125 35.8515625 C-37.66173797 29.46431382 -39.29683927 24.39812001 -39.10546875 15.72265625 C-38.45329707 9.30127357 -35.70800388 5.31228572 -31.11328125 0.91015625 C-21.21010221 -7.08926934 -10.47241494 -6.9542096 0 0 Z " fill="#1A476F" transform="translate(244.80078125,53.27734375)"/>
<path d="M0 0 C-4.62 4.62 -9.24 9.24 -14 14 C-14.66 13.67 -15.32 13.34 -16 13 C-13.43061719 7.00477345 -10.05538694 2.59713408 -4.25 -0.4375 C-2 -1 -2 -1 0 0 Z " fill="#40627F" transform="translate(105,92)"/>
<path d="M0 0 C4.15487437 1.57680242 8.10307787 3.49299705 12.0625 5.5 C12.67416016 5.80808594 13.28582031 6.11617188 13.91601562 6.43359375 C15.61137107 7.28768633 17.30572134 8.14377336 19 9 C20.33290516 9.66752233 21.666002 10.33466434 23 11 C17.51847092 10.60846221 13.65329042 9.63160123 8.859375 6.9375 C6.92289321 5.96112263 5.11539498 5.44928743 3 5 C3 4.34 3 3.68 3 3 C2.01 3 1.02 3 0 3 C0 2.01 0 1.02 0 0 Z " fill="#A7A9AC" transform="translate(48,263)"/>
<path d="M0 0 C-1.46966358 3.39859703 -3.38037514 5.64963709 -6 8.25 C-6.70125 8.95640625 -7.4025 9.6628125 -8.125 10.390625 C-10 12 -10 12 -12 12 C-10.53033642 8.60140297 -8.61962486 6.35036291 -6 3.75 C-5.29875 3.04359375 -4.5975 2.3371875 -3.875 1.609375 C-2 0 -2 0 0 0 Z " fill="#05243F" transform="translate(28,17)"/>
<path d="M0 0 C4.29 0 8.58 0 13 0 C13.33 0.99 13.66 1.98 14 3 C9.30976546 2.43393721 4.65499974 1.81462495 0 1 C0 0.67 0 0.34 0 0 Z " fill="#7F8B97" transform="translate(219,24)"/>
<path d="M0 0 C1.125 3.75 1.125 3.75 0 6 C-0.66 6 -1.32 6 -2 6 C-2.33 7.32 -2.66 8.64 -3 10 C-3.66 10 -4.32 10 -5 10 C-3.84414715 6.08788267 -2.64465038 3.1254959 0 0 Z " fill="#778594" transform="translate(86,107)"/>
<path d="M0 0 C5.75 1.875 5.75 1.875 8 3 C8 3.99 8 4.98 8 6 C4.08597051 4.73058503 2.20927127 3.48832306 0 0 Z " fill="#67798A" transform="translate(212,87)"/>
<path d="M0 0 C3.65316671 1.24976756 4.78065836 1.67098753 7 5 C5.68 5 4.36 5 3 5 C3 4.34 3 3.68 3 3 C2.01 3 1.02 3 0 3 C0 2.01 0 1.02 0 0 Z " fill="#6C7D8D" transform="translate(48,263)"/>
<path d="M0 0 C0.96706319 3.00864103 1.27677226 5.05360248 0 8 C-2.0625 9.25 -2.0625 9.25 -4 10 C-2.66666667 6.66666667 -1.33333333 3.33333333 0 0 Z " fill="#7B8691" transform="translate(201,171)"/>
</svg>
