<?xml version="1.0" encoding="UTF-8"?>
<svg version="1.1" xmlns="http://www.w3.org/2000/svg" width="300" height="300">
<path d="M0 0 C0.94975655 -0.00445784 1.8995131 -0.00891569 2.87805015 -0.01350862 C3.92355684 -0.01332426 4.96906354 -0.01313989 6.04625225 -0.01294994 C7.70983643 -0.01846498 7.70983643 -0.01846498 9.40702838 -0.02409142 C13.14262451 -0.0351503 16.87819284 -0.03897582 20.61380291 -0.04278088 C23.28428088 -0.04904377 25.95475586 -0.05567741 28.62523174 -0.0626936 C36.65225389 -0.08245509 44.6792773 -0.09252317 52.70631769 -0.10142139 C56.48561198 -0.10580423 60.26490486 -0.111171 64.04419804 -0.11641026 C76.60559613 -0.13342115 89.16699334 -0.14791612 101.72840118 -0.155159 C104.98805333 -0.15706891 108.24770548 -0.15898924 111.5073576 -0.16094494 C112.31753445 -0.16142868 113.1277113 -0.16191242 113.96243896 -0.16241082 C127.09175367 -0.17071416 140.22097736 -0.1960568 153.35025231 -0.22852562 C166.82690598 -0.26158212 180.30351337 -0.27960642 193.78020781 -0.28280324 C201.3481013 -0.28496949 208.915862 -0.2937351 216.48371601 -0.31926441 C222.92765694 -0.3409521 229.37143283 -0.34903138 235.81540612 -0.33929763 C239.10332598 -0.33474739 242.39083342 -0.33885485 245.67872143 -0.35605907 C249.24349741 -0.37367115 252.80740441 -0.3667236 256.37217999 -0.35352612 C257.41099451 -0.36449536 258.44980904 -0.37546461 259.5201028 -0.38676625 C266.84888199 -0.32109291 270.2071956 1.01360118 275.48172283 6.16937733 C276.05277752 6.83840076 276.62383221 7.5074242 277.21219158 8.19672108 C277.79613689 8.86832264 278.38008221 9.5399242 278.98172283 10.23187733 C281.28897827 13.32728613 281.52541351 15.96895768 281.53111935 19.70329475 C281.53496049 20.64608451 281.53880164 21.58887427 281.54275918 22.56023341 C281.5418927 23.59795821 281.54102622 24.63568301 281.54013348 25.70485401 C281.54459016 27.35618754 281.54459016 27.35618754 281.54913688 29.04088134 C281.55784427 32.74884137 281.55933385 36.45676919 281.56082439 40.16473866 C281.5654511 42.81551231 281.57045479 45.46628301 281.57586956 48.11705494 C281.5894557 55.3319244 281.59547801 62.54678831 281.59988022 69.76166844 C281.6026421 74.26590134 281.60687935 78.77013208 281.61138439 83.27436352 C281.62357731 95.74311692 281.63387665 108.21186859 281.63725948 120.68062782 C281.63747905 121.47876813 281.63769862 122.27690843 281.63792484 123.0992348 C281.63814311 123.8992937 281.63836139 124.6993526 281.63858628 125.52365571 C281.63902975 127.14490211 281.63947631 128.76614851 281.63992596 130.38739491 C281.64014739 131.19159053 281.64036882 131.99578615 281.64059696 132.82435133 C281.64454539 145.85665038 281.66200068 158.88889353 281.68528548 171.92117099 C281.70899384 185.29838397 281.72146109 198.67556889 281.7226274 212.05280322 C281.72354444 219.56477889 281.72930402 227.07668173 281.74744701 234.58863735 C281.76284104 240.98498369 281.76797262 247.38123469 281.75970891 253.77759603 C281.75579991 257.04114724 281.75837335 260.30446605 281.77076626 263.56800175 C281.78341661 267.10638004 281.77764618 270.64426281 281.76718426 274.18263721 C281.77926886 275.72918616 281.77926886 275.72918616 281.7915976 277.30697852 C281.7470781 283.72910631 280.91146074 288.08046925 276.71609783 293.18109608 C276.13730877 293.74312733 275.55851971 294.30515858 274.96219158 294.88422108 C274.38598064 295.45656483 273.80976971 296.02890858 273.21609783 296.61859608 C269.82173558 299.45088114 267.08538983 300.38392838 262.67912865 300.39148998 C261.2524323 300.40116332 261.2524323 300.40116332 259.7969138 300.41103208 C258.75500207 300.40793488 257.71309034 300.40483767 256.63960552 300.40164661 C254.97579805 300.40844328 254.97579805 300.40844328 253.27837831 300.41537726 C249.54818496 300.42807402 245.81813662 300.42639747 242.087924 300.42474842 C239.41891718 300.43073039 236.74992186 300.43747824 234.08092022 300.44510365 C227.57529325 300.4617208 221.06970253 300.46721352 214.56405612 300.4683284 C209.27578097 300.46927859 203.98751778 300.47338744 198.69924641 300.47972965 C183.70652484 300.49734447 168.71383192 300.50656822 153.72109994 300.5050687 C152.91273782 300.50498879 152.1043757 300.50490888 151.27151775 300.50482655 C150.46216871 300.50474478 149.65281968 300.50466302 148.81894491 300.50457878 C135.70329663 300.50376594 122.5877632 300.52290244 109.47214814 300.55110328 C96.00562173 300.57983016 82.53915134 300.59364366 69.07259351 300.59191573 C61.511957 300.59125173 53.95144087 300.5967482 46.39083195 300.61827183 C39.95315626 300.63648115 33.51565551 300.64083316 27.07796522 300.62725298 C23.79397179 300.62072174 20.51038381 300.62278394 17.22640896 300.63795948 C13.66421438 300.65335552 10.10290361 300.64413987 6.54072857 300.6286974 C5.505509 300.63898452 4.47028943 300.64927165 3.40369958 300.65987051 C-3.77761498 300.59099255 -8.21650905 299.32928263 -13.56124592 294.28265858 C-14.02788654 293.6974242 -14.49452717 293.11218983 -14.97530842 292.50922108 C-15.45741779 291.91883045 -15.93952717 291.32843983 -16.43624592 290.72015858 C-18.51279571 287.89103369 -18.72810655 286.08968796 -18.74011612 282.63131237 C-18.74580736 281.67781348 -18.7514986 280.72431458 -18.75736231 279.74192178 C-18.75854218 278.68708459 -18.75972206 277.6322474 -18.76093769 276.54544544 C-18.76602551 275.43048777 -18.77111333 274.3155301 -18.77635533 273.16678584 C-18.79213723 269.40511841 -18.80061999 265.64347027 -18.80904865 261.88177967 C-18.81615486 259.87913472 -18.82326722 257.87648975 -18.83088898 255.87384669 C-18.86423682 247.10738798 -18.88574005 238.34091749 -18.90408882 229.5744161 C-18.90888302 227.29177677 -18.91386645 225.00913791 -18.91889405 222.72649908 C-18.94986708 208.55399698 -18.97655501 194.38149082 -18.99331284 180.20896435 C-18.9972624 176.92509803 -19.00126538 173.64123178 -19.00533772 170.35736561 C-19.00634608 169.54116665 -19.00735444 168.72496769 -19.00839335 167.88403542 C-19.02539612 154.66542756 -19.06649946 141.44700705 -19.1173607 128.22849064 C-19.16914228 114.65920034 -19.19825591 101.09000636 -19.20550972 87.52061808 C-19.21017161 79.90114852 -19.22491839 72.28198561 -19.26525402 64.66261387 C-19.29956931 58.17254473 -19.31348755 51.68283756 -19.30082988 45.19268291 C-19.29500595 41.88205671 -19.30212492 38.57235572 -19.32899952 35.26181126 C-19.35660764 31.66887222 -19.34720219 28.0778525 -19.32856464 24.48489857 C-19.34535957 23.44344571 -19.3621545 22.40199284 -19.37945837 21.3289808 C-19.28765038 14.24664676 -17.55053698 10.21110558 -12.60030842 5.13422108 C-8.4742202 1.39195502 -5.5399754 0.01205606 0 0 Z M27.80594158 52.07562733 C23.17111234 58.86050236 22.48859443 65.10190483 23.39969158 73.13422108 C25.18657939 80.40539348 29.35901833 84.9126142 35.39969158 89.13422108 C41.24324931 92.55215107 46.78745699 92.95376565 53.39969158 92.13422108 C60.13899112 90.33707453 65.14560492 86.61366966 69.39969158 81.13422108 C73.25872559 74.0593254 74.23965434 67.12088283 72.25906658 59.37250233 C70.02813891 53.5619498 65.64382873 48.42705138 60.39969158 45.13422108 C48.26903211 39.74540889 36.22375576 41.25555957 27.80594158 52.07562733 Z M146.27469158 125.32172108 C144.09586394 127.88106168 143.00280453 129.81709989 142.39969158 133.13422108 C141.73969158 133.13422108 141.07969158 133.13422108 140.39969158 133.13422108 C140.39969158 126.53422108 140.39969158 119.93422108 140.39969158 113.13422108 C126.86969158 113.13422108 113.33969158 113.13422108 99.39969158 113.13422108 C99.39969158 159.99422108 99.39969158 206.85422108 99.39969158 255.13422108 C113.25969158 255.13422108 127.11969158 255.13422108 141.39969158 255.13422108 C141.44867596 249.72660389 141.49766033 244.3189867 141.54812908 238.74750233 C141.58356345 235.29761515 141.61955077 231.8477511 141.65750408 228.39789295 C141.71753792 222.93625884 141.77565381 217.47465665 141.82156658 212.01288319 C141.85876026 207.60368923 141.90520665 203.19467649 141.95775509 198.78563976 C141.97611983 197.11339186 141.99129193 195.44110538 142.00303555 193.76879787 C142.21601519 164.45699576 142.21601519 164.45699576 150.77469158 154.32172108 C157.58146247 148.64941201 164.78601901 147.39190458 173.39969158 148.13422108 C179.39118493 149.21012351 183.46719463 151.22943283 187.18484783 156.11078358 C191.97060697 164.08191938 192.53350718 173.2669584 192.60501385 182.36444569 C192.61491344 183.15550709 192.62481304 183.94656849 192.63501263 184.76160145 C192.66637605 187.35322639 192.69128458 189.94486961 192.71609783 192.53656483 C192.73668914 194.34260479 192.75768616 196.14864017 192.77907085 197.95467091 C192.83406684 202.69087463 192.88357453 207.42712021 192.93191814 212.16339588 C192.99116744 217.85539003 193.05727087 223.54730825 193.12221813 229.23923969 C193.21994458 237.87085349 193.30899405 246.50251767 193.39969158 255.13422108 C207.58969158 255.13422108 221.77969158 255.13422108 236.39969158 255.13422108 C236.4581085 241.32368212 236.4581085 241.32368212 236.49734783 227.51312733 C236.50918599 221.85927933 236.52300372 216.20549761 236.55057049 210.55170155 C239.22637792 163.66369732 239.22637792 163.66369732 221.62625408 122.14984608 C209.93472785 110.98324551 194.94853716 109.52212894 179.57937908 109.82562733 C166.66105121 110.38942976 155.03658019 115.75844022 146.27469158 125.32172108 Z M26.39969158 113.13422108 C26.39969158 159.99422108 26.39969158 206.85422108 26.39969158 255.13422108 C40.58969158 255.13422108 54.77969158 255.13422108 69.39969158 255.13422108 C69.39969158 208.27422108 69.39969158 161.41422108 69.39969158 113.13422108 C55.20969158 113.13422108 41.01969158 113.13422108 26.39969158 113.13422108 Z " fill="#0B3E6A" transform="translate(18.600308418273926,-0.13422107696533203)"/>
</svg>
