<svg xmlns="http://www.w3.org/2000/svg" viewBox="0 0 21 21" id="linkedin-bug-premium-xsmall" aria-hidden="true" role="none" data-supported-dps="21x21" width="21" height="21">
  <g>
    <path d="M19.5 0h-18A1.5 1.5 0 000 1.5v18A1.5 1.5 0 001.5 21h18a1.5 1.5 0 001.5-1.5v-18A1.5 1.5 0 0019.5 0zM6 18H3V8h3zM4.5 6.25A1.75 1.75 0 116.25 4.5 1.75 1.75 0 014.5 6.25zM18 18h-3v-5.09c0-1.62-.74-2.44-1.84-2.44A2.32 2.32 0 0011 12.91V18H8V8h3v1.39a4 4 0 013.3-1.63c1.77 0 3.66.93 3.66 4z" fill="#c37d16"/>
  </g>
</svg>
