<?xml version="1.0" encoding="UTF-8"?>
<svg version="1.1" xmlns="http://www.w3.org/2000/svg" width="300" height="300">
<path d="M0 0 C11.61329861 -0.20872416 23.22614963 -0.36854222 34.84094334 -0.46630955 C40.23456225 -0.51323916 45.62689611 -0.57686715 51.01977539 -0.67895508 C56.2264711 -0.7768993 61.43193272 -0.83058944 66.63947868 -0.85389519 C68.62393562 -0.87049816 70.60832652 -0.9029226 72.59225655 -0.95157051 C88.13203363 -1.3173923 88.13203363 -1.3173923 92.6990509 1.90351868 C94.51775998 4.20463372 95.74419732 6.35916412 97 9 C98.06071086 10.53375169 99.14293213 12.05303685 100.25390625 13.55078125 C101.35915392 15.13636233 102.46193495 16.72366509 103.5625 18.3125 C104.79031141 20.07555786 106.01817757 21.8385776 107.24609375 23.6015625 C108.17784424 24.94202637 108.17784424 24.94202637 109.12841797 26.30957031 C112.11873224 30.60819583 115.12168895 34.89794937 118.125 39.1875 C118.99813843 40.43527222 118.99813843 40.43527222 119.88891602 41.70825195 C123.58026279 46.98094006 127.28483696 52.24407147 131 57.5 C135.30712995 63.59339803 139.59687974 69.69869877 143.875 75.8125 C144.7397998 77.04782471 144.7397998 77.04782471 145.62207031 78.30810547 C148.73022922 82.74968696 151.83286044 87.19504072 154.9296875 91.64453125 C155.56922363 92.56194092 156.20875977 93.47935059 156.86767578 94.42456055 C158.09950422 96.19177901 159.32971291 97.96012787 160.55810547 99.72973633 C161.11127441 100.52275146 161.66444336 101.3157666 162.234375 102.1328125 C162.72131836 102.83293457 163.20826172 103.53305664 163.70996094 104.25439453 C165.02436862 106.12330892 165.02436862 106.12330892 167 108 C171.02330045 104.20955938 174.67016602 100.25444597 178.125 95.9375 C181.74055906 91.43964581 185.54275642 87.19906878 189.5 83 C193.32224411 78.94140192 197.01439015 74.85701232 200.5 70.5 C204.50347456 65.4956568 208.81336708 60.85300698 213.203125 56.19140625 C216.44578071 52.72903789 219.53444083 49.20694897 222.5 45.5 C226.50411733 40.49485334 230.81467992 35.85139857 235.20532227 31.18920898 C238.42784161 27.74856433 241.49508793 24.25010395 244.4375 20.5625 C245.52417969 19.27085938 245.52417969 19.27085938 246.6328125 17.953125 C248.4650472 15.66736685 250.06207316 13.41364242 251.6796875 10.984375 C255.72628035 5.38089814 259.30205811 0.72619974 266.37158203 -0.66210938 C274.60821611 -1.3000605 282.79212951 -0.83205175 291 0 C287.06501572 5.47495538 282.85788326 10.45610231 278.1875 15.3125 C273.32693431 20.43720616 268.74721082 25.66783448 264.33984375 31.19140625 C261.51482316 34.5823742 258.52499581 37.78791784 255.5 41 C251.67790551 45.0587499 247.9856237 49.14297037 244.5 53.5 C240.49652544 58.5043432 236.18663292 63.14699302 231.796875 67.80859375 C228.55421929 71.27096211 225.46555917 74.79305103 222.5 78.5 C218.49652544 83.5043432 214.18663292 88.14699302 209.796875 92.80859375 C205.78573556 97.09151601 202.06614032 101.54013726 198.40234375 106.125 C194.87835551 110.34232577 191.11874891 114.32951504 187.33984375 118.31835938 C186.80617187 118.88361328 186.2725 119.44886719 185.72265625 120.03125 C185.24578369 120.53205078 184.76891113 121.03285156 184.27758789 121.54882812 C182.78165971 123.18291912 182.78165971 123.18291912 181 126 C181.35179415 129.26636538 182.78601502 131.42548512 184.66796875 134.0625 C185.22419922 134.84882813 185.78042969 135.63515625 186.35351562 136.4453125 C186.95873047 137.28835937 187.56394531 138.13140625 188.1875 139 C189.47281538 140.81238716 190.75796715 142.62489035 192.04296875 144.4375 C192.70216309 145.36304688 193.36135742 146.28859375 194.04052734 147.2421875 C197.05045392 151.47843602 200.02448151 155.73955056 203 160 C204.16387661 161.66289054 205.32793984 163.32565047 206.4921875 164.98828125 C208.85248124 168.36003531 211.2117491 171.7325041 213.5703125 175.10546875 C219.51542691 183.60593935 225.47319464 192.0969828 231.46142578 200.56713867 C235.32373485 206.03352615 239.16448625 211.51478603 243 217 C248.82118432 225.32405468 254.66854221 233.62918378 260.53222656 241.92333984 C263.02320986 245.44767516 265.51144903 248.97394701 268 252.5 C268.99998722 253.91667568 269.99998722 255.33334236 271 256.75 C273 259.58333333 275 262.41666667 277 265.25 C277.49580566 265.9522168 277.99161133 266.65443359 278.50244141 267.37792969 C279.4949691 268.78436117 280.48683919 270.19125697 281.47802734 271.59863281 C284.08694777 275.30111784 286.70926778 278.9931169 289.3515625 282.671875 C289.89941406 283.43822266 290.44726562 284.20457031 291.01171875 284.99414062 C292.05959818 286.45939577 293.11146316 287.92181178 294.16796875 289.38085938 C294.87759766 290.37569336 294.87759766 290.37569336 295.6015625 291.390625 C296.22538818 292.2573584 296.22538818 292.2573584 296.86181641 293.14160156 C298.20587308 295.33614455 299.06711179 297.60582089 300 300 C288.38670139 300.20872416 276.77385037 300.36854222 265.15905666 300.46630955 C259.76543775 300.51323916 254.37310389 300.57686715 248.98022461 300.67895508 C243.7735289 300.7768993 238.56806728 300.83058944 233.36052132 300.85389519 C231.37606438 300.87049816 229.39167348 300.9029226 227.40774345 300.95157051 C211.86796637 301.3173923 211.86796637 301.3173923 207.3009491 298.09648132 C205.48224002 295.79536628 204.25580268 293.64083588 203 291 C201.93928963 289.46624797 200.85706943 287.94696199 199.74609375 286.44921875 C198.6408359 284.86364476 197.53805662 283.27634074 196.4375 281.6875 C195.20709552 279.92052816 193.9766249 278.15360238 192.74609375 276.38671875 C192.12460449 275.49259277 191.50311523 274.5984668 190.86279297 273.67724609 C187.91797023 269.44488356 184.95858782 265.22274579 182 261 C180.83584988 259.33730093 179.67178761 257.67454034 178.5078125 256.01171875 C177.93063477 255.18720215 177.35345703 254.36268555 176.75878906 253.51318359 C174.98183466 250.97404304 173.20567026 248.43435149 171.4296875 245.89453125 C165.48969813 237.40138856 159.53744793 228.91739006 153.55395508 220.45483398 C148.94973063 213.93890053 144.37551453 207.40208531 139.80664062 200.86132812 C139.25298828 200.06919922 138.69933594 199.27707031 138.12890625 198.4609375 C137.33830811 197.32736816 137.33830811 197.32736816 136.53173828 196.17089844 C135.07594467 194.10763469 133.58513979 192.07375757 132.08984375 190.0390625 C130 187 130 187 130 185 C126.45580438 187.67045295 123.72120866 190.37782168 121 193.875 C117.34618114 198.44227358 113.51304748 202.74630917 109.5 207 C105.67752825 211.05835907 101.98558681 215.14301649 98.5 219.5 C95.01437264 223.8570342 91.32206333 227.94121533 87.5 232 C82.87705042 236.90960298 78.53398821 241.94478543 74.31640625 247.2109375 C70.64420613 251.63243984 66.70481871 255.79865503 62.78515625 260 C60.02333659 262.9621924 57.34697566 265.9902134 54.69921875 269.0546875 C52.70593572 271.3366529 50.66506973 273.57228574 48.625 275.8125 C44.71022922 280.14671051 40.99257378 284.61077978 37.3359375 289.1640625 C36.56507812 290.09992188 35.79421875 291.03578125 35 292 C34.56324951 292.69254883 34.12649902 293.38509766 33.67651367 294.09863281 C31.09120655 297.7838884 29.33171914 299.73279884 24.81445312 300.63916016 C21.03365463 300.78743675 17.34073449 300.69835254 13.5625 300.5 C12.25861328 300.46390625 10.95472656 300.4278125 9.61132812 300.390625 C6.40451416 300.29665243 3.2037929 300.16538988 0 300 C1.27358252 297.22464673 2.60792242 295.13121629 4.72265625 292.93359375 C5.25640869 292.37148193 5.79016113 291.80937012 6.34008789 291.23022461 C6.90848389 290.63862549 7.47687988 290.04702637 8.0625 289.4375 C12.05539325 285.2166606 15.92999225 280.97813469 19.5625 276.4375 C22.8825224 272.28899495 26.37051167 268.37474704 30 264.5 C33.64888449 260.60423719 37.15698438 256.66665716 40.5 252.5 C44.83927344 247.09563218 49.50396415 242.05044877 54.2265625 236.984375 C58.53105514 232.36646239 62.64312405 227.59238393 66.73828125 222.7890625 C72.32318933 216.24344569 77.96553961 209.77960493 83.77734375 203.43359375 C87.86049757 198.962935 91.81842379 194.38858111 95.74609375 189.78125 C102.04097358 182.40129153 108.42267184 175.13028938 115 168 C113.4241014 163.36083782 110.91840968 159.71760684 108.125 155.75 C107.63813721 155.05036133 107.15127441 154.35072266 106.6496582 153.62988281 C105.10582975 151.41560722 103.55418753 149.20701465 102 147 C101.5167627 146.31292969 101.03352539 145.62585938 100.53564453 144.91796875 C98.08233354 141.43251775 95.62277397 137.95153623 93.16015625 134.47265625 C89.79950899 129.72183213 86.46062216 124.95591613 83.125 120.1875 C82.54145752 119.353396 81.95791504 118.51929199 81.35668945 117.65991211 C78.9736953 114.2530646 76.59135497 110.84576013 74.20898438 107.43847656 C67.67149962 98.08951613 61.1241867 88.74799345 54.53857422 79.43286133 C50.07573897 73.1165396 45.6427678 66.77950417 41.2109375 60.44140625 C37.00512178 54.42912782 32.77972501 48.43103251 28.54345703 42.44018555 C24.03944595 36.06634554 19.56689645 29.67066262 15.10107422 23.27001953 C12.39060688 19.39086736 9.66746123 15.52340452 6.890625 11.69140625 C6.42027832 11.04131592 5.94993164 10.39122559 5.46533203 9.72143555 C4.59553475 8.52320662 3.72173677 7.32786781 2.84326172 6.13598633 C-0 2.21939633 -0 2.21939633 0 0 Z M37 20 C40.90289146 25.94031544 44.93615348 31.75839141 49.125 37.5 C53.45984656 43.47035633 57.75777574 49.46347723 62 55.5 C66.12374004 61.36499573 70.29314418 67.19433912 74.5 73 C79.21040657 79.50058483 83.86297608 86.0386388 88.48046875 92.60546875 C92.11454566 97.7656672 95.79671401 102.8892894 99.5 108 C104.21040657 114.50058483 108.86297608 121.0386388 113.48046875 127.60546875 C117.11454566 132.7656672 120.79671401 137.8892894 124.5 143 C129.21040657 149.50058483 133.86297608 156.0386388 138.48046875 162.60546875 C142.11454566 167.7656672 145.79671401 172.8892894 149.5 178 C154.21040657 184.50058483 158.86297608 191.0386388 163.48046875 197.60546875 C167.11454566 202.7656672 170.79671401 207.8892894 174.5 213 C179.21040657 219.50058483 183.86297608 226.0386388 188.48046875 232.60546875 C192.11454582 237.76566742 195.79672441 242.88928154 199.5 248 C205.24601615 255.93008861 210.91049318 263.91525451 216.53710938 271.93041992 C217.01986328 272.61338135 217.50261719 273.29634277 218 274 C218.31728561 274.58379929 218.63457123 275.16759857 218.96147156 275.76908875 C221.19550145 279.57530597 221.19550145 279.57530597 224.95046997 281.61097717 C227.33662673 281.81047259 229.62732221 281.78806752 232.01953125 281.68359375 C232.87810226 281.67368912 233.73667328 281.66378448 234.6212616 281.65357971 C237.35344031 281.61450927 240.08154417 281.52671235 242.8125 281.4375 C244.6685616 281.40237613 246.52468643 281.37043899 248.38085938 281.34179688 C252.92213394 281.26477258 257.46037714 281.14404968 262 281 C259.82052212 276.43747362 256.98184139 272.40961397 254.125 268.25 C253.54492188 267.40308594 252.96484375 266.55617188 252.3671875 265.68359375 C248.23387794 259.69029489 243.93549567 253.84998937 239.52197266 248.06152344 C235.08523192 242.20496754 230.96843695 236.15281763 226.85546875 230.06640625 C223.37054669 224.93467138 219.76119918 219.93223217 216 215 C211.04866775 208.50709201 206.42667874 201.8309284 201.85546875 195.06640625 C198.37054669 189.93467138 194.76119918 184.93223217 191 180 C186.04866775 173.50709201 181.42667874 166.8309284 176.85546875 160.06640625 C173.37054669 154.93467138 169.76119918 149.93223217 166 145 C161.04866775 138.50709201 156.42667874 131.8309284 151.85546875 125.06640625 C148.37054669 119.93467138 144.76119918 114.93223217 141 110 C136.04866775 103.50709201 131.42667874 96.8309284 126.85546875 90.06640625 C123.37054669 84.93467138 119.76119918 79.93223217 116 75 C111.05250904 68.51212927 106.43299934 61.84185599 101.86645508 55.08178711 C97.85583024 49.17439953 93.67334101 43.42802222 89.30859375 37.77734375 C88.86 37.19210938 88.41140625 36.606875 87.94921875 36.00390625 C87.46952637 35.40239746 86.98983398 34.80088867 86.49560547 34.18115234 C85 32 85 32 83.58642578 28.88525391 C81.71265792 25.14928804 80.18534388 22.73227137 77 20 C70.4351341 18.01351995 63.25110439 18.87650466 56.5 19.25 C54.60954412 19.31025099 52.71890417 19.36499384 50.828125 19.4140625 C46.21417923 19.54575672 41.60912011 19.75240264 37 20 Z " fill="#09375E" transform="translate(0,0)"/>
</svg>
