<?xml version="1.0" encoding="UTF-8"?>
<!DOCTYPE svg PUBLIC "-//W3C//DTD SVG 1.1//EN" "http://www.w3.org/Graphics/SVG/1.1/DTD/svg11.dtd">
<svg xmlns="http://www.w3.org/2000/svg" version="1.1" width="600px" height="600px" style="shape-rendering:geometricPrecision; text-rendering:geometricPrecision; image-rendering:optimizeQuality; fill-rule:evenodd; clip-rule:evenodd" xmlns:xlink="http://www.w3.org/1999/xlink">
<g><path style="opacity:1" fill="#000000" d="M -0.5,-0.5 C 199.5,-0.5 399.5,-0.5 599.5,-0.5C 599.5,199.5 599.5,399.5 599.5,599.5C 399.5,599.5 199.5,599.5 -0.5,599.5C -0.5,399.5 -0.5,199.5 -0.5,-0.5 Z"/></g>
<g><path style="opacity:1" fill="#3a3a3a" d="M 591.5,131.5 C 495.332,131.167 399.332,131.501 303.5,132.5C 302.957,132.44 302.624,132.107 302.5,131.5C 398.999,130.168 495.332,130.168 591.5,131.5 Z"/></g>
<g><path style="opacity:1" fill="#d7d7d7" d="M 303.5,132.5 C 399.332,131.501 495.332,131.167 591.5,131.5C 591.5,131.833 591.5,132.167 591.5,132.5C 498.166,132.333 404.833,132.5 311.5,133C 312.386,134.615 313.386,136.115 314.5,137.5C 310.978,135.574 307.312,133.907 303.5,132.5 Z"/></g>
<g><path style="opacity:1" fill="#fdfdfd" d="M 6.5,131.5 C 77.1675,131.333 147.834,131.5 218.5,132C 237.636,133.86 256.303,137.694 274.5,143.5C 275.072,144.973 275.905,146.307 277,147.5C 279.081,146.667 281.248,146.667 283.5,147.5C 331.092,165.76 364.425,198.426 383.5,245.5C 383.69,248.855 384.69,251.855 386.5,254.5C 386.41,257.152 387.076,259.485 388.5,261.5C 392.808,275.894 394.475,290.728 393.5,306C 394.338,321.796 392.671,337.296 388.5,352.5C 387.076,354.515 386.41,356.848 386.5,359.5C 368.422,410.081 334.422,445.581 284.5,466C 262.957,474.21 240.623,479.043 217.5,480.5C 147.167,480.5 76.8333,480.5 6.5,480.5C 6.5,408.833 6.5,337.167 6.5,265.5C 34.1667,265.5 61.8333,265.5 89.5,265.5C 89.1679,312.67 89.5012,359.67 90.5,406.5C 130.67,406.832 170.67,406.499 210.5,405.5C 249.321,403.021 278.821,385.354 299,352.5C 309.987,329.403 312.487,305.403 306.5,280.5C 306.072,277.215 305.072,274.215 303.5,271.5C 297.854,256.397 288.854,243.564 276.5,233C 271.265,228.916 265.931,225.083 260.5,221.5C 260.636,218.994 259.136,217.328 256,216.5C 255.228,216.645 254.561,216.978 254,217.5C 253.701,213.834 252.034,212.834 249,214.5C 247.373,214.375 245.873,213.875 244.5,213C 246.595,212.444 246.762,211.944 245,211.5C 242.217,212.31 239.383,212.31 236.5,211.5C 226.299,209.033 215.966,207.367 205.5,206.5C 139.335,205.501 73.0021,205.168 6.5,205.5C 6.5,180.833 6.5,156.167 6.5,131.5 Z"/></g>
<g><path style="opacity:1" fill="#fefefe" d="M 591.5,132.5 C 591.5,156.833 591.5,181.167 591.5,205.5C 523.429,205.83 455.429,205.496 387.5,204.5C 368.551,176.214 344.217,153.881 314.5,137.5C 313.386,136.115 312.386,134.615 311.5,133C 404.833,132.5 498.166,132.333 591.5,132.5 Z"/></g>
<g><path style="opacity:1" fill="#bebebe" d="M 274.5,143.5 C 277.947,144.083 280.947,145.416 283.5,147.5C 281.248,146.667 279.081,146.667 277,147.5C 275.905,146.307 275.072,144.973 274.5,143.5 Z"/></g>
<g><path style="opacity:1" fill="#bcbcbc" d="M 6.5,131.5 C 6.5,156.167 6.5,180.833 6.5,205.5C 73.0021,205.168 139.335,205.501 205.5,206.5C 138.833,206.5 72.1667,206.5 5.5,206.5C 5.16896,181.328 5.50229,156.328 6.5,131.5 Z"/></g>
<g><path style="opacity:1" fill="#bcbcbc" d="M 591.5,131.5 C 592.498,156.328 592.831,181.328 592.5,206.5C 523.825,207.163 455.492,206.497 387.5,204.5C 455.429,205.496 523.429,205.83 591.5,205.5C 591.5,181.167 591.5,156.833 591.5,132.5C 591.5,132.167 591.5,131.833 591.5,131.5 Z"/></g>
<g><path style="opacity:1" fill="#d4d4d4" d="M 236.5,211.5 C 239.383,212.31 242.217,212.31 245,211.5C 246.762,211.944 246.595,212.444 244.5,213C 245.873,213.875 247.373,214.375 249,214.5C 252.034,212.834 253.701,213.834 254,217.5C 254.561,216.978 255.228,216.645 256,216.5C 259.136,217.328 260.636,218.994 260.5,221.5C 252.661,217.575 244.661,214.241 236.5,211.5 Z"/></g>
<g><path style="opacity:1" fill="#9c9c9c" d="M 383.5,245.5 C 385.472,248.084 386.472,251.084 386.5,254.5C 384.69,251.855 383.69,248.855 383.5,245.5 Z"/></g>
<g><path style="opacity:1" fill="#aaaaaa" d="M 386.5,254.5 C 387.924,256.515 388.59,258.848 388.5,261.5C 387.076,259.485 386.41,257.152 386.5,254.5 Z"/></g>
<g><path style="opacity:1" fill="#717171" d="M 554.5,269.5 C 554.167,269.5 553.833,269.5 553.5,269.5C 506.833,269.5 460.167,269.5 413.5,269.5C 413.5,271.167 413.5,272.833 413.5,274.5C 412.539,272.735 412.205,270.735 412.5,268.5C 460.003,268.168 507.336,268.501 554.5,269.5 Z"/></g>
<g><path style="opacity:1" fill="#fefefe" d="M 553.5,269.5 C 553.5,294.167 553.5,318.833 553.5,343.5C 506.833,343.5 460.167,343.5 413.5,343.5C 414.244,339.881 414.577,336.215 414.5,332.5C 414.5,332.167 414.5,331.833 414.5,331.5C 415.29,330.391 415.79,329.058 416,327.5C 416.825,316.992 416.659,306.658 415.5,296.5C 415.491,289.097 414.824,281.763 413.5,274.5C 413.5,272.833 413.5,271.167 413.5,269.5C 460.167,269.5 506.833,269.5 553.5,269.5 Z"/></g>
<g><path style="opacity:1" fill="#525252" d="M 303.5,271.5 C 305.072,274.215 306.072,277.215 306.5,280.5C 304.528,277.916 303.528,274.916 303.5,271.5 Z"/></g>
<g><path style="opacity:1" fill="#c1c1c1" d="M 415.5,296.5 C 416.659,306.658 416.825,316.992 416,327.5C 415.79,329.058 415.29,330.391 414.5,331.5C 415.055,319.841 415.388,308.174 415.5,296.5 Z"/></g>
<g><path style="opacity:1" fill="#d8d8d8" d="M 6.5,265.5 C 6.5,265.167 6.5,264.833 6.5,264.5C 34.5,264.5 62.5,264.5 90.5,264.5C 90.5,311.833 90.5,359.167 90.5,406.5C 89.5012,359.67 89.1679,312.67 89.5,265.5C 61.8333,265.5 34.1667,265.5 6.5,265.5 Z"/></g>
<g><path style="opacity:1" fill="#9f9f9f" d="M 553.5,269.5 C 553.833,269.5 554.167,269.5 554.5,269.5C 554.5,294.5 554.5,319.5 554.5,344.5C 507.167,344.5 459.833,344.5 412.5,344.5C 412.5,343.5 412.5,342.5 412.5,341.5C 412.858,338.311 413.525,335.311 414.5,332.5C 414.577,336.215 414.244,339.881 413.5,343.5C 460.167,343.5 506.833,343.5 553.5,343.5C 553.5,318.833 553.5,294.167 553.5,269.5 Z"/></g>
<g><path style="opacity:1" fill="#181818" d="M 412.5,341.5 C 412.5,342.5 412.5,343.5 412.5,344.5C 459.833,344.5 507.167,344.5 554.5,344.5C 506.335,345.665 458.002,345.832 409.5,345C 410.814,344.015 411.814,342.848 412.5,341.5 Z"/></g>
<g><path style="opacity:1" fill="#606060" d="M 388.5,352.5 C 388.59,355.152 387.924,357.485 386.5,359.5C 386.41,356.848 387.076,354.515 388.5,352.5 Z"/></g>
<g><path style="opacity:1" fill="#363636" d="M 90.5,264.5 C 91.4988,311.33 91.8321,358.33 91.5,405.5C 131.167,405.5 170.833,405.5 210.5,405.5C 170.67,406.499 130.67,406.832 90.5,406.5C 90.5,359.167 90.5,311.833 90.5,264.5 Z"/></g>
<g><path style="opacity:1" fill="#cecece" d="M 591.5,406.5 C 591.5,406.833 591.5,407.167 591.5,407.5C 523.429,407.17 455.429,407.504 387.5,408.5C 455.158,406.503 523.158,405.837 591.5,406.5 Z"/></g>
<g><path style="opacity:1" fill="#fefefe" d="M 591.5,407.5 C 591.5,431.833 591.5,456.167 591.5,480.5C 498.5,480.5 405.5,480.5 312.5,480.5C 312.433,479.041 312.766,477.708 313.5,476.5C 343.552,459.784 368.219,437.118 387.5,408.5C 455.429,407.504 523.429,407.17 591.5,407.5 Z"/></g>
<g><path style="opacity:1" fill="#b0b0b0" d="M 6.5,264.5 C 6.5,264.833 6.5,265.167 6.5,265.5C 6.5,337.167 6.5,408.833 6.5,480.5C 76.8333,480.5 147.167,480.5 217.5,480.5C 147.002,481.499 76.3353,481.833 5.5,481.5C 5.16744,408.998 5.50078,336.665 6.5,264.5 Z"/></g>
<g><path style="opacity:1" fill="#dbdbdb" d="M 313.5,476.5 C 312.766,477.708 312.433,479.041 312.5,480.5C 405.5,480.5 498.5,480.5 591.5,480.5C 495.5,481.833 399.5,481.833 303.5,480.5C 306.829,479.169 310.162,477.836 313.5,476.5 Z"/></g>
<g><path style="opacity:1" fill="#434343" d="M 591.5,406.5 C 592.498,431.661 592.831,456.995 592.5,482.5C 495.831,482.833 399.164,482.5 302.5,481.5C 302.624,480.893 302.957,480.56 303.5,480.5C 399.5,481.833 495.5,481.833 591.5,480.5C 591.5,456.167 591.5,431.833 591.5,407.5C 591.5,407.167 591.5,406.833 591.5,406.5 Z"/></g>
</svg>
