<?xml version="1.0" encoding="UTF-8"?>
<!DOCTYPE svg PUBLIC "-//W3C//DTD SVG 1.1//EN" "http://www.w3.org/Graphics/SVG/1.1/DTD/svg11.dtd">
<svg xmlns="http://www.w3.org/2000/svg" version="1.1" width="600px" height="600px" style="shape-rendering:geometricPrecision; text-rendering:geometricPrecision; image-rendering:optimizeQuality; fill-rule:evenodd; clip-rule:evenodd" xmlns:xlink="http://www.w3.org/1999/xlink">
<g><path style="opacity:1" fill="#fefefe" d="M -0.5,-0.5 C 199.5,-0.5 399.5,-0.5 599.5,-0.5C 599.5,199.5 599.5,399.5 599.5,599.5C 399.5,599.5 199.5,599.5 -0.5,599.5C -0.5,399.5 -0.5,199.5 -0.5,-0.5 Z"/></g>
<g><path style="opacity:1" fill="#c4c4c4" d="M 591.5,131.5 C 495.833,131.333 400.166,131.5 304.5,132C 306.346,133.03 308.013,134.196 309.5,135.5C 306.262,135.651 303.929,134.318 302.5,131.5C 398.999,130.168 495.332,130.168 591.5,131.5 Z"/></g>
<g><path style="opacity:1" fill="#262626" d="M 591.5,131.5 C 591.5,131.833 591.5,132.167 591.5,132.5C 498.166,132.333 404.833,132.5 311.5,133C 312.305,134.113 312.972,135.279 313.5,136.5C 312.167,136.167 310.833,135.833 309.5,135.5C 308.013,134.196 306.346,133.03 304.5,132C 400.166,131.5 495.833,131.333 591.5,131.5 Z"/></g>
<g><path style="opacity:1" fill="#010101" d="M 6.5,131.5 C 79.8467,131.056 153.18,131.556 226.5,133C 276.653,138.494 319.153,159.328 354,195.5C 387.033,235.941 399.7,282.274 392,334.5C 390.881,343.015 389.048,351.348 386.5,359.5C 384.796,362.939 383.462,366.605 382.5,370.5C 361.619,417.109 327.285,449.442 279.5,467.5C 264.665,472.527 249.665,476.527 234.5,479.5C 229.473,479.503 224.473,479.836 219.5,480.5C 148.511,481.471 77.5111,481.804 6.5,481.5C 6.5,409.5 6.5,337.5 6.5,265.5C 34.1667,265.5 61.8333,265.5 89.5,265.5C 89.1679,312.67 89.5012,359.67 90.5,406.5C 130.67,406.832 170.67,406.499 210.5,405.5C 243.891,403.539 271.058,389.539 292,363.5C 308.654,338.225 313.488,310.892 306.5,281.5C 306.277,277.838 305.277,274.505 303.5,271.5C 292.065,244.067 272.399,225.067 244.5,214.5C 242.383,212.345 239.716,211.345 236.5,211.5C 231.094,210.628 225.761,209.462 220.5,208C 217.183,207.502 213.85,207.335 210.5,207.5C 142.669,206.501 74.6687,206.167 6.5,206.5C 6.5,181.5 6.5,156.5 6.5,131.5 Z"/></g>
<g><path style="opacity:1" fill="#000000" d="M 591.5,132.5 C 591.5,156.833 591.5,181.167 591.5,205.5C 523.429,205.83 455.429,205.496 387.5,204.5C 368.318,175.989 343.651,153.323 313.5,136.5C 312.972,135.279 312.305,134.113 311.5,133C 404.833,132.5 498.166,132.333 591.5,132.5 Z"/></g>
<g><path style="opacity:1" fill="#404040" d="M 591.5,131.5 C 592.498,156.328 592.831,181.328 592.5,206.5C 523.825,207.163 455.492,206.497 387.5,204.5C 455.429,205.496 523.429,205.83 591.5,205.5C 591.5,181.167 591.5,156.833 591.5,132.5C 591.5,132.167 591.5,131.833 591.5,131.5 Z"/></g>
<g><path style="opacity:1" fill="#b5b5b5" d="M 6.5,131.5 C 6.5,156.5 6.5,181.5 6.5,206.5C 74.6687,206.167 142.669,206.501 210.5,207.5C 142.167,207.5 73.8333,207.5 5.5,207.5C 5.16893,181.995 5.50226,156.661 6.5,131.5 Z"/></g>
<g><path style="opacity:1" fill="#5b5b5b" d="M 236.5,211.5 C 239.716,211.345 242.383,212.345 244.5,214.5C 241.603,213.871 238.936,212.871 236.5,211.5 Z"/></g>
<g><path style="opacity:1" fill="#858585" d="M 554.5,343.5 C 554.167,343.5 553.833,343.5 553.5,343.5C 553.5,318.833 553.5,294.167 553.5,269.5C 506.833,269.5 460.167,269.5 413.5,269.5C 413.5,271.167 413.5,272.833 413.5,274.5C 412.539,272.735 412.205,270.735 412.5,268.5C 459.833,268.5 507.167,268.5 554.5,268.5C 554.5,293.5 554.5,318.5 554.5,343.5 Z"/></g>
<g><path style="opacity:1" fill="#000000" d="M 553.5,343.5 C 506.833,343.5 460.167,343.5 413.5,343.5C 414.244,339.881 414.577,336.215 414.5,332.5C 416.152,313.104 415.819,293.771 413.5,274.5C 413.5,272.833 413.5,271.167 413.5,269.5C 460.167,269.5 506.833,269.5 553.5,269.5C 553.5,294.167 553.5,318.833 553.5,343.5 Z"/></g>
<g><path style="opacity:1" fill="#adadad" d="M 303.5,271.5 C 305.277,274.505 306.277,277.838 306.5,281.5C 304.723,278.495 303.723,275.162 303.5,271.5 Z"/></g>
<g><path style="opacity:1" fill="#252525" d="M 6.5,265.5 C 6.5,265.167 6.5,264.833 6.5,264.5C 34.5,264.5 62.5,264.5 90.5,264.5C 90.5,311.833 90.5,359.167 90.5,406.5C 89.5012,359.67 89.1679,312.67 89.5,265.5C 61.8333,265.5 34.1667,265.5 6.5,265.5 Z"/></g>
<g><path style="opacity:1" fill="#595959" d="M 414.5,332.5 C 414.577,336.215 414.244,339.881 413.5,343.5C 460.167,343.5 506.833,343.5 553.5,343.5C 506.67,344.499 459.67,344.832 412.5,344.5C 412.5,343.5 412.5,342.5 412.5,341.5C 412.858,338.311 413.525,335.311 414.5,332.5 Z"/></g>
<g><path style="opacity:1" fill="#e6e6e6" d="M 412.5,341.5 C 412.5,342.5 412.5,343.5 412.5,344.5C 459.67,344.832 506.67,344.499 553.5,343.5C 553.833,343.5 554.167,343.5 554.5,343.5C 507.273,345.169 459.773,346.169 412,346.5C 411.25,345.874 410.416,345.374 409.5,345C 410.814,344.015 411.814,342.848 412.5,341.5 Z"/></g>
<g><path style="opacity:1" fill="#c9c9c9" d="M 386.5,359.5 C 385.864,362.106 385.864,364.606 386.5,367C 385.051,368.102 383.718,369.269 382.5,370.5C 383.462,366.605 384.796,362.939 386.5,359.5 Z"/></g>
<g><path style="opacity:1" fill="#c7c7c7" d="M 90.5,264.5 C 91.4988,311.33 91.8321,358.33 91.5,405.5C 131.167,405.5 170.833,405.5 210.5,405.5C 170.67,406.499 130.67,406.832 90.5,406.5C 90.5,359.167 90.5,311.833 90.5,264.5 Z"/></g>
<g><path style="opacity:1" fill="#303030" d="M 591.5,406.5 C 591.5,406.833 591.5,407.167 591.5,407.5C 523.429,407.17 455.429,407.504 387.5,408.5C 455.158,406.503 523.158,405.837 591.5,406.5 Z"/></g>
<g><path style="opacity:1" fill="#000000" d="M 591.5,407.5 C 591.5,431.833 591.5,456.167 591.5,480.5C 498.499,480.667 405.499,480.5 312.5,480C 311.748,479.329 311.414,478.496 311.5,477.5C 342.529,460.806 367.862,437.806 387.5,408.5C 455.429,407.504 523.429,407.17 591.5,407.5 Z"/></g>
<g><path style="opacity:1" fill="#dddddd" d="M 279.5,467.5 C 274.656,469.512 270.156,472.179 266,475.5C 263.804,476.09 261.638,476.757 259.5,477.5C 258.304,477.154 258.304,476.654 259.5,476C 255.065,474.968 251.898,476.468 250,480.5C 245.96,477.972 242.294,478.638 239,482.5C 238.082,480.624 236.582,479.624 234.5,479.5C 249.665,476.527 264.665,472.527 279.5,467.5 Z"/></g>
<g><path style="opacity:1" fill="#232323" d="M 311.5,477.5 C 311.414,478.496 311.748,479.329 312.5,480C 405.499,480.5 498.499,480.667 591.5,480.5C 495.5,481.833 399.5,481.833 303.5,480.5C 306.162,479.501 308.828,478.501 311.5,477.5 Z"/></g>
<g><path style="opacity:1" fill="#b5b5b5" d="M 6.5,264.5 C 6.5,264.833 6.5,265.167 6.5,265.5C 6.5,337.5 6.5,409.5 6.5,481.5C 77.5111,481.804 148.511,481.471 219.5,480.5C 217.708,481.309 215.708,481.809 213.5,482C 144.167,482.5 74.8341,482.667 5.5,482.5C 5.16744,409.665 5.50077,336.998 6.5,264.5 Z"/></g>
<g><path style="opacity:1" fill="#bbbbbb" d="M 591.5,406.5 C 592.498,431.661 592.831,456.995 592.5,482.5C 495.831,482.833 399.164,482.5 302.5,481.5C 302.624,480.893 302.957,480.56 303.5,480.5C 399.5,481.833 495.5,481.833 591.5,480.5C 591.5,456.167 591.5,431.833 591.5,407.5C 591.5,407.167 591.5,406.833 591.5,406.5 Z"/></g>
</svg>
