<?xml version="1.0" encoding="UTF-8"?>
<svg version="1.1" xmlns="http://www.w3.org/2000/svg" width="500" height="500">
<path d="M0 0 C165 0 330 0 500 0 C500 165 500 330 500 500 C335 500 170 500 0 500 C0 335 0 170 0 0 Z " fill="#333333" transform="translate(0,0)"/>
<path d="M0 0 C22.97601907 -0.06794649 45.9519557 -0.1231147 68.92805004 -0.15543652 C79.59831041 -0.17084874 90.26850353 -0.19182915 100.9387207 -0.22631836 C110.24822852 -0.2563948 119.55768758 -0.27561592 128.86724263 -0.28226548 C133.78808944 -0.28614711 138.70879687 -0.29514899 143.62959862 -0.31719017 C169.38001841 -0.42804276 194.13883855 -0.34779233 218.78515625 8.25390625 C221.93674448 9.31555237 225.1389944 10.18649591 228.34765625 11.05859375 C231.34770787 12.12341325 234.08444037 13.48607633 236.91430664 14.9362793 C238.86977879 15.93358611 240.83999521 16.88572427 242.82421875 17.82421875 C273.98067778 32.75044762 301.02827768 58.57069421 314 91 C314.24492187 91.60263672 314.48984375 92.20527344 314.7421875 92.82617188 C321.74801199 110.32339194 323.26771841 126.98520731 323.375 145.6875 C323.38705475 146.86427307 323.38705475 146.86427307 323.39935303 148.06481934 C323.48479825 159.07833451 322.42668343 169.2436444 320 180 C319.61968628 181.69624512 319.61968628 181.69624512 319.23168945 183.42675781 C313.64865833 207.50243381 300.89413997 227.27406027 284 245 C283.49654053 245.53407471 282.99308105 246.06814941 282.47436523 246.6184082 C278.14293184 251.10084457 273.51329289 254.83095789 268.4375 258.4375 C267.64230957 259.00315674 266.84711914 259.56881348 266.02783203 260.15161133 C227.39807585 287.29799916 186.39325143 291.51201369 140.60121918 291.30384064 C136.16183378 291.28650931 131.72250074 291.28593811 127.28308105 291.28381348 C114.37619023 291.26819162 101.46934194 291.2263081 88.5625 291.1875 C59.666875 291.125625 30.77125 291.06375 1 291 C1 231.93 1 172.86 1 112 C24.1 112 47.2 112 71 112 C71 150.94 71 189.88 71 230 C86.55125 229.87625 102.1025 229.7525 118.125 229.625 C123.00941895 229.59100098 127.89383789 229.55700195 132.92626953 229.52197266 C137.35949354 229.48199983 137.35949354 229.48199983 141.79269409 229.43954468 C143.74538435 229.4220247 145.69810963 229.40814867 147.65084839 229.39730835 C158.94932621 229.33177023 169.8583554 229.0538638 181 227 C182.08448174 226.81307587 182.08448174 226.81307587 183.19087219 226.62237549 C204.81317546 222.73111265 223.65430331 212.41333801 237.375 195 C238.27908247 193.68621248 239.15185059 192.35057223 240 191 C240.59425781 190.06285156 241.18851563 189.12570312 241.80078125 188.16015625 C245.3722078 182.29650977 248.41929367 176.70130432 250 170 C250.20367187 169.14148438 250.40734375 168.28296875 250.6171875 167.3984375 C254.93517563 144.98038952 253.23095002 121.18005799 240.890625 101.6640625 C229.22226609 85.56834755 214.38934054 74.31140719 195.625 67.875 C194.95339844 67.62363281 194.28179687 67.37226563 193.58984375 67.11328125 C180.01455864 62.45820144 164.73987308 62.69989189 150.53466797 62.68115234 C148.87685678 62.67182029 147.21905016 62.66164697 145.56124878 62.65071106 C141.12444923 62.62376552 136.68768074 62.60836888 132.25082159 62.59528303 C127.590366 62.57949463 122.92997249 62.55275587 118.26956177 62.5272522 C109.4728586 62.48073926 100.67614339 62.44386349 91.8793813 62.41057932 C81.85251375 62.37216191 71.82570899 62.32280418 61.79889464 62.27259517 C41.199304 62.16968484 20.59968629 62.08173688 0 62 C0 41.54 0 21.08 0 0 Z " fill="#FDFDFD" transform="translate(5,110)"/>
<path d="M0 0 C1.66426832 0.00090208 3.32854278 -0.00214899 4.99279785 -0.0088501 C9.50355332 -0.01569697 14.01218341 0.03305972 18.5224936 0.09212065 C23.23981425 0.14470687 27.95715963 0.14701781 32.67472839 0.15493774 C40.59130918 0.17515222 48.50710468 0.22779504 56.42333984 0.30371094 C67.60211378 0.41088502 78.78060436 0.46125451 89.95979846 0.49945903 C104.91856886 0.55342707 119.87758487 0.6238401 134.83585358 0.75984955 C136.45926997 0.77401134 138.08270182 0.78650942 139.70614433 0.79726791 C141.91259469 0.81234295 144.1188933 0.83363417 146.32527161 0.85678101 C148.18159572 0.87293237 148.18159572 0.87293237 150.07542133 0.88941002 C152.82104492 1.03759766 152.82104492 1.03759766 153.82104492 2.03759766 C153.92020287 3.93458614 153.94903806 5.83528552 153.95043945 7.73486328 C153.95359161 8.95282593 153.95674377 10.17078857 153.95999146 11.42565918 C153.95820167 12.7650557 153.95615072 14.1044519 153.95385742 15.44384766 C153.95453052 16.80765805 153.95550059 18.17146833 153.95675659 19.53527832 C153.9582333 22.39690287 153.95607989 25.25849625 153.95141602 28.12011719 C153.94571873 31.7957838 153.94899788 35.47137739 153.95498848 39.14704132 C153.95859483 41.96421869 153.95745517 44.78137863 153.95486069 47.59855652 C153.95419162 48.95419829 153.95501913 50.30984162 153.95734024 51.66548157 C153.95986793 53.5570981 153.95533506 55.44872015 153.95043945 57.34033203 C153.94964386 58.41875366 153.94884827 59.49717529 153.94802856 60.60827637 C153.82104492 63.03759766 153.82104492 63.03759766 152.82104492 64.03759766 C149.74915069 64.13563427 146.69972503 64.16750578 143.62742615 64.15785217 C142.16219099 64.15913381 142.16219099 64.15913381 140.66735512 64.16044134 C137.36757403 64.16209911 134.06784287 64.15656993 130.76806641 64.15112305 C128.41326906 64.15084121 126.05847162 64.15099883 123.70367432 64.15156555 C117.28864123 64.15185368 110.87362666 64.14595457 104.4585979 64.13899159 C98.44041346 64.13291714 92.42222683 64.13236978 86.40403987 64.13133972 C74.48061942 64.12914889 62.5572058 64.12248795 50.63378906 64.11303711 C39.04850295 64.1038638 27.46321869 64.09678257 15.87792969 64.0925293 C15.16430047 64.09226657 14.45067125 64.09200385 13.7154169 64.09173317 C10.13549452 64.09042817 6.55557212 64.08916445 2.97564971 64.08792126 C-26.74255641 64.07754767 -56.46075542 64.05985438 -86.17895508 64.03759766 C-83.30894055 60.97678477 -80.07942806 59.33158415 -76.36645508 57.47509766 C-56.18215131 47.01088487 -38.76585528 31.59071284 -24.88989258 13.69775391 C-24.4598804 13.15491949 -24.02986822 12.61208508 -23.58682537 12.05280113 C-22.10528349 10.07072238 -22.10528349 10.07072238 -21.17050648 7.74788857 C-16.74823057 -1.38358503 -8.90862363 -0.18075204 0 0 Z " fill="#FAFAFA" transform="translate(340.178955078125,337.96240234375)"/>
<path d="M0 0 C78.87 0 157.74 0 239 0 C239 20.46 239 40.92 239 62 C216.97288809 62.24841301 194.94691197 62.45099616 172.91875458 62.56993389 C162.69044309 62.62662929 152.46306431 62.703907 142.23535156 62.82983398 C133.31966479 62.93955444 124.40465349 63.01045866 115.48831034 63.03497344 C110.76773859 63.04930225 106.04909899 63.08291212 101.32914734 63.16303062 C96.88308364 63.23788624 92.43974086 63.26069334 87.99310684 63.24418449 C86.3644085 63.24720274 84.73561617 63.26898272 83.10746384 63.31126022 C70.82300976 63.61451012 70.82300976 63.61451012 66.35096741 59.6539402 C64.30113179 56.85689976 62.65917781 54.04039659 61 51 C44.57294571 28.97634582 23.61611169 14.39700268 0 1 C0 0.67 0 0.34 0 0 Z " fill="#FCFCFC" transform="translate(255,110)"/>
<path d="M0 0 C38.61 0 77.22 0 117 0 C117 20.46 117 40.92 117 62 C78.39 62 39.78 62 0 62 C0.33 55.73 0.66 49.46 1 43 C1.08244721 38.74184419 1.14225371 34.50591479 1.125 30.25 C1.12886719 29.2496875 1.13273437 28.249375 1.13671875 27.21875 C1.13147577 23.2550541 1.06960065 19.47328442 0.4921875 15.546875 C-0.22047254 10.41119792 0 5.18488799 0 0 Z " fill="#FDFDFD" transform="translate(345,225)"/>
<path d="M0 0 C0.33 0.99 0.66 1.98 1 3 C-0.28062485 4.7074998 -1.61767557 6.37373596 -3 8 C-3.33 8.99 -3.66 9.98 -4 11 C-6.0625 11.6875 -6.0625 11.6875 -8 12 C-6.59023295 8.96147295 -4.91129772 6.4060405 -2.875 3.75 C-2.06675781 2.69039063 -2.06675781 2.69039063 -1.2421875 1.609375 C-0.83226562 1.07828125 -0.42234375 0.5471875 0 0 Z " fill="#DCDCDC" transform="translate(321,344)"/>
<path d="M0 0 C0.33 0 0.66 0 1 0 C1.1875 2.3125 1.1875 2.3125 1 5 C-0.5 6.625 -0.5 6.625 -2 8 C-2 8.99 -2 9.98 -2 11 C-3.98 11.99 -3.98 11.99 -6 13 C-4.58707905 8.1725201 -2.57025846 4.2837641 0 0 Z " fill="#D2D2D2" transform="translate(251,290)"/>
<path d="M0 0 C0.99 0.66 1.98 1.32 3 2 C3.1875 5.625 3.1875 5.625 3 9 C0.87961365 6.38485683 -1.13091744 3.80362384 -3 1 C-2.01 0.67 -1.02 0.34 0 0 Z " fill="#EBEBEB" transform="translate(319,159)"/>
<path d="M0 0 C0.66 0.33 1.32 0.66 2 1 C0.25 3 0.25 3 -2 5 C-3.32 5 -4.64 5 -6 5 C-6 4.34 -6 3.68 -6 3 C-4.03533587 1.93224776 -2.03144641 0.93446535 0 0 Z " fill="#DBDBDB" transform="translate(263,396)"/>
<path d="M0 0 C0.33 1.32 0.66 2.64 1 4 C-0.96466413 5.06775224 -2.96855359 6.06553465 -5 7 C-5.66 6.67 -6.32 6.34 -7 6 C-4.69 4.02 -2.38 2.04 0 0 Z " fill="#D8D8D8" transform="translate(234,314)"/>
</svg>
